<svg width="24" height="14" viewBox="0 0 24 14" fill="none" xmlns="http://www.w3.org/2000/svg">
<path d="M15 6.01562H20.0156L15.9844 1.98438H15V6.01562ZM16.4062 12.0625C16.7188 12.3438 17.0781 12.4844 17.4844 12.4844C17.8906 12.4844 18.2344 12.3438 18.5156 12.0625C18.8281 11.75 18.9844 11.3906 18.9844 10.9844C18.9844 10.5781 18.8281 10.2344 18.5156 9.95312C18.2344 9.64062 17.8906 9.48438 17.4844 9.48438C17.0781 9.48438 16.7188 9.64062 16.4062 9.95312C16.125 10.2344 15.9844 10.5781 15.9844 10.9844C15.9844 11.3906 16.125 11.75 16.4062 12.0625ZM12.9844 6.01562V1.98438H9V6.01562H12.9844ZM4.92188 12.0625C5.20312 12.3438 5.5625 12.4844 6 12.4844C6.4375 12.4844 6.79688 12.3438 7.07812 12.0625C7.35938 11.75 7.5 11.3906 7.5 10.9844C7.5 10.5781 7.35938 10.2344 7.07812 9.95312C6.79688 9.64062 6.4375 9.48438 6 9.48438C5.5625 9.48438 5.20312 9.64062 4.92188 9.95312C4.64062 10.2344 4.5 10.5781 4.5 10.9844C4.5 11.3906 4.64062 11.75 4.92188 12.0625ZM3 6.01562H6.98438V1.98438H3V6.01562ZM17.0156 0.015625L23.0156 6.01562V10.9844H20.4844C20.4844 11.7969 20.1875 12.5 19.5938 13.0938C19 13.6875 18.2969 13.9844 17.4844 13.9844C16.6719 13.9844 15.9688 13.6875 15.375 13.0938C14.7812 12.5 14.4844 11.7969 14.4844 10.9844H9C9 11.7969 8.70312 12.5 8.10938 13.0938C7.51562 13.6875 6.8125 13.9844 6 13.9844C5.1875 13.9844 4.48438 13.6875 3.89062 13.0938C3.29688 12.5 3 11.7969 3 10.9844H0.984375V1.98438C0.984375 1.42188 1.17188 0.953125 1.54688 0.578125C1.95312 0.203125 2.4375 0.015625 3 0.015625H17.0156Z" fill="#FF0000"/>
</svg>
