<svg width="18" height="18" viewBox="0 0 18 18" fill="none" xmlns="http://www.w3.org/2000/svg">
<path d="M8.76562 9.23438C7.85938 8.29688 7.40625 7.15625 7.40625 5.8125C7.40625 4.46875 7.85938 3.32812 8.76562 2.39062C9.70312 1.45312 10.8438 0.984375 12.1875 0.984375C13.5312 0.984375 14.6719 1.45312 15.6094 2.39062C16.5469 3.32812 17.0156 4.46875 17.0156 5.8125C17.0156 7.15625 16.5469 8.29688 15.6094 9.23438C14.6719 10.1406 13.5312 10.5938 12.1875 10.5938C10.8438 10.5938 9.70312 10.1406 8.76562 9.23438ZM10.3594 16.4531C9.98438 16.0469 9.79688 15.5625 9.79688 15C9.79688 14.4375 9.98438 13.9688 10.3594 13.5938C10.7656 13.1875 11.25 12.9844 11.8125 12.9844C12.375 12.9844 12.8438 13.1875 13.2188 13.5938C13.5938 13.9688 13.7812 14.4375 13.7812 15C13.7812 15.5625 13.5938 16.0469 13.2188 16.4531C12.8438 16.8281 12.375 17.0156 11.8125 17.0156C11.25 17.0156 10.7656 16.8281 10.3594 16.4531ZM1.92188 13.6406C1.29688 13.0156 0.984375 12.2656 0.984375 11.3906C0.984375 10.5156 1.29688 9.76562 1.92188 9.14062C2.54688 8.51562 3.3125 8.20312 4.21875 8.20312C5.09375 8.20312 5.84375 8.51562 6.46875 9.14062C7.09375 9.73438 7.40625 10.4844 7.40625 11.3906C7.40625 12.2969 7.09375 13.0625 6.46875 13.6875C5.84375 14.2812 5.09375 14.5781 4.21875 14.5781C3.3125 14.5781 2.54688 14.2656 1.92188 13.6406Z" fill="#FF0000"/>
</svg>
