<svg width="36" height="36" viewBox="0 0 36 36" fill="none" xmlns="http://www.w3.org/2000/svg">
<path d="M30 0H6C2.68629 0 0 2.68629 0 6V30C0 33.3137 2.68629 36 6 36H30C33.3137 36 36 33.3137 36 30V6C36 2.68629 33.3137 0 30 0Z" fill="#FFF4F4"/>
<path d="M21.9844 12C21.9844 11.0625 22.4844 10.1719 23.4844 9.32812C24.5156 8.45312 25.6875 8.01562 27 8.01562V27.9844H24.5156V20.0156H21.9844V12ZM17.0156 15V8.01562H18.9844V15C18.9844 16.0625 18.625 16.9844 17.9062 17.7656C17.1875 18.5156 16.2969 18.9219 15.2344 18.9844V27.9844H12.75V18.9844C11.6875 18.9219 10.7969 18.5156 10.0781 17.7656C9.35938 16.9844 9 16.0625 9 15V8.01562H11.0156V15H12.9844V8.01562H15V15H17.0156Z" fill="#FF0000"/>
</svg>
