<svg width="21" height="21" viewBox="0 0 21 21" fill="none" xmlns="http://www.w3.org/2000/svg">
<path d="M15.6406 18.3438L19.2969 14.6875L15.6406 11.0781L12.0312 14.7344L15.6406 18.3438ZM13.7188 9.29688C13.5312 9.10938 13.2969 9.01562 13.0156 9.01562C12.7344 9.01562 12.4844 9.10938 12.2656 9.29688C12.0781 9.48438 11.9844 9.71875 11.9844 10C11.9844 10.2812 12.0781 10.5156 12.2656 10.7031C12.4844 10.8906 12.7344 10.9844 13.0156 10.9844C13.2969 10.9844 13.5312 10.8906 13.7188 10.7031C13.9062 10.5156 14 10.2812 14 10C14 9.71875 13.9062 9.48438 13.7188 9.29688ZM10.2969 12.7188C10.4844 12.9062 10.7188 13 11 13C11.2812 13 11.5156 12.9062 11.7031 12.7188C11.8906 12.5312 11.9844 12.2969 11.9844 12.0156C11.9844 11.7344 11.8906 11.5 11.7031 11.3125C11.5156 11.0938 11.2812 10.9844 11 10.9844C10.7188 10.9844 10.4844 11.0938 10.2969 11.3125C10.1094 11.5 10.0156 11.7344 10.0156 12.0156C10.0156 12.2969 10.1094 12.5312 10.2969 12.7188ZM8.28125 10.7031C8.46875 10.8906 8.70312 10.9844 8.98438 10.9844C9.26562 10.9844 9.5 10.8906 9.6875 10.7031C9.90625 10.5156 10.0156 10.2812 10.0156 10C10.0156 9.71875 9.90625 9.48438 9.6875 9.29688C9.5 9.10938 9.26562 9.01562 8.98438 9.01562C8.70312 9.01562 8.46875 9.10938 8.28125 9.29688C8.09375 9.48438 8 9.71875 8 10C8 10.2812 8.09375 10.5156 8.28125 10.7031ZM6.3125 8.96875L9.92188 5.3125L6.3125 1.70312L2.65625 5.35938L6.3125 8.96875ZM11.7031 7.28125C11.5156 7.09375 11.2812 7 11 7C10.7188 7 10.4844 7.09375 10.2969 7.28125C10.1094 7.46875 10.0156 7.70312 10.0156 7.98438C10.0156 8.26562 10.1094 8.51562 10.2969 8.73438C10.4844 8.92188 10.7188 9.01562 11 9.01562C11.2812 9.01562 11.5156 8.92188 11.7031 8.73438C11.8906 8.51562 11.9844 8.26562 11.9844 7.98438C11.9844 7.70312 11.8906 7.46875 11.7031 7.28125ZM16.7188 10L20.7031 13.9844C20.8906 14.1719 20.9844 14.4062 20.9844 14.6875C20.9844 14.9688 20.8906 15.2031 20.7031 15.3906L16.3906 19.75C16.2031 19.9375 15.9688 20.0312 15.6875 20.0312C15.375 20.0312 15.125 19.9375 14.9375 19.75L11 15.7656L7.01562 19.75C6.82812 19.9375 6.59375 20.0312 6.3125 20.0312C6.03125 20.0312 5.79688 19.9375 5.60938 19.75L1.25 15.3906C1.0625 15.2031 0.96875 14.9688 0.96875 14.6875C0.96875 14.4062 1.0625 14.1719 1.25 13.9844L5.23438 10L1.25 6.0625C1.0625 5.875 0.96875 5.64062 0.96875 5.35938C0.96875 5.04688 1.0625 4.79688 1.25 4.60938L5.60938 0.296875C5.79688 0.109375 6.03125 0.015625 6.3125 0.015625C6.59375 0.015625 6.82812 0.109375 7.01562 0.296875L11 4.28125L14.9375 0.296875C15.125 0.109375 15.3594 0.015625 15.6406 0.015625C15.9531 0.015625 16.2031 0.109375 16.3906 0.296875L20.7031 4.60938C20.8906 4.79688 20.9844 5.04688 20.9844 5.35938C20.9844 5.64062 20.8906 5.875 20.7031 6.0625L16.7188 10Z" fill="#FF0000"/>
</svg>
