<svg width="36" height="36" viewBox="0 0 36 36" fill="none" xmlns="http://www.w3.org/2000/svg">
<path d="M30 0H6C2.68629 0 0 2.68629 0 6V30C0 33.3137 2.68629 36 6 36H30C33.3137 36 36 33.3137 36 30V6C36 2.68629 33.3137 0 30 0Z" fill="#FFF4F4"/>
<path d="M21 17.0156H26.0156L21.9844 12.9844H21V17.0156ZM22.4062 23.0625C22.7188 23.3438 23.0781 23.4844 23.4844 23.4844C23.8906 23.4844 24.2344 23.3438 24.5156 23.0625C24.8281 22.75 24.9844 22.3906 24.9844 21.9844C24.9844 21.5781 24.8281 21.2344 24.5156 20.9531C24.2344 20.6406 23.8906 20.4844 23.4844 20.4844C23.0781 20.4844 22.7188 20.6406 22.4062 20.9531C22.125 21.2344 21.9844 21.5781 21.9844 21.9844C21.9844 22.3906 22.125 22.75 22.4062 23.0625ZM18.9844 17.0156V12.9844H15V17.0156H18.9844ZM10.9219 23.0625C11.2031 23.3438 11.5625 23.4844 12 23.4844C12.4375 23.4844 12.7969 23.3438 13.0781 23.0625C13.3594 22.75 13.5 22.3906 13.5 21.9844C13.5 21.5781 13.3594 21.2344 13.0781 20.9531C12.7969 20.6406 12.4375 20.4844 12 20.4844C11.5625 20.4844 11.2031 20.6406 10.9219 20.9531C10.6406 21.2344 10.5 21.5781 10.5 21.9844C10.5 22.3906 10.6406 22.75 10.9219 23.0625ZM9 17.0156H12.9844V12.9844H9V17.0156ZM23.0156 11.0156L29.0156 17.0156V21.9844H26.4844C26.4844 22.7969 26.1875 23.5 25.5938 24.0938C25 24.6875 24.2969 24.9844 23.4844 24.9844C22.6719 24.9844 21.9688 24.6875 21.375 24.0938C20.7812 23.5 20.4844 22.7969 20.4844 21.9844H15C15 22.7969 14.7031 23.5 14.1094 24.0938C13.5156 24.6875 12.8125 24.9844 12 24.9844C11.1875 24.9844 10.4844 24.6875 9.89062 24.0938C9.29688 23.5 9 22.7969 9 21.9844H6.98438V12.9844C6.98438 12.4219 7.17188 11.9531 7.54688 11.5781C7.95311 11.2031 8.4375 11.0156 9 11.0156H23.0156Z" fill="#FF0000"/>
</svg>
