<svg width="36" height="36" viewBox="0 0 36 36" fill="none" xmlns="http://www.w3.org/2000/svg">
<path d="M30 0H6C2.68629 0 0 2.68629 0 6V30C0 33.3137 2.68629 36 6 36H30C33.3137 36 36 33.3137 36 30V6C36 2.68629 33.3137 0 30 0Z" fill="#FFF4F4"/>
<path d="M22.6406 26.3438L26.2969 22.6875L22.6406 19.0781L19.0312 22.7344L22.6406 26.3438ZM20.7188 17.2969C20.5312 17.1094 20.2969 17.0156 20.0156 17.0156C19.7344 17.0156 19.4844 17.1094 19.2656 17.2969C19.0781 17.4844 18.9844 17.7188 18.9844 18C18.9844 18.2812 19.0781 18.5156 19.2656 18.7031C19.4844 18.8906 19.7344 18.9844 20.0156 18.9844C20.2969 18.9844 20.5312 18.8906 20.7188 18.7031C20.9062 18.5156 21 18.2812 21 18C21 17.7188 20.9062 17.4844 20.7188 17.2969ZM17.2969 20.7188C17.4844 20.9062 17.7188 21 18 21C18.2812 21 18.5156 20.9062 18.7031 20.7188C18.8906 20.5312 18.9844 20.2969 18.9844 20.0156C18.9844 19.7344 18.8906 19.5 18.7031 19.3125C18.5156 19.0938 18.2812 18.9844 18 18.9844C17.7188 18.9844 17.4844 19.0938 17.2969 19.3125C17.1094 19.5 17.0156 19.7344 17.0156 20.0156C17.0156 20.2969 17.1094 20.5312 17.2969 20.7188ZM15.2812 18.7031C15.4688 18.8906 15.7031 18.9844 15.9844 18.9844C16.2656 18.9844 16.5 18.8906 16.6875 18.7031C16.9062 18.5156 17.0156 18.2812 17.0156 18C17.0156 17.7188 16.9062 17.4844 16.6875 17.2969C16.5 17.1094 16.2656 17.0156 15.9844 17.0156C15.7031 17.0156 15.4688 17.1094 15.2812 17.2969C15.0938 17.4844 15 17.7188 15 18C15 18.2812 15.0938 18.5156 15.2812 18.7031ZM13.3125 16.9688L16.9219 13.3125L13.3125 9.70312L9.65625 13.3594L13.3125 16.9688ZM18.7031 15.2812C18.5156 15.0938 18.2812 15 18 15C17.7188 15 17.4844 15.0938 17.2969 15.2812C17.1094 15.4688 17.0156 15.7031 17.0156 15.9844C17.0156 16.2656 17.1094 16.5156 17.2969 16.7344C17.4844 16.9219 17.7188 17.0156 18 17.0156C18.2812 17.0156 18.5156 16.9219 18.7031 16.7344C18.8906 16.5156 18.9844 16.2656 18.9844 15.9844C18.9844 15.7031 18.8906 15.4688 18.7031 15.2812ZM23.7188 18L27.7031 21.9844C27.8906 22.1719 27.9844 22.4062 27.9844 22.6875C27.9844 22.9688 27.8906 23.2031 27.7031 23.3906L23.3906 27.75C23.2031 27.9375 22.9688 28.0312 22.6875 28.0312C22.375 28.0312 22.125 27.9375 21.9375 27.75L18 23.7656L14.0156 27.75C13.8281 27.9375 13.5938 28.0312 13.3125 28.0312C13.0312 28.0312 12.7969 27.9375 12.6094 27.75L8.25 23.3906C8.0625 23.2031 7.96875 22.9688 7.96875 22.6875C7.96875 22.4062 8.0625 22.1719 8.25 21.9844L12.2344 18L8.25 14.0625C8.0625 13.875 7.96875 13.6406 7.96875 13.3594C7.96875 13.0469 8.0625 12.7969 8.25 12.6094L12.6094 8.29688C12.7969 8.10938 13.0312 8.01562 13.3125 8.01562C13.5938 8.01562 13.8281 8.10938 14.0156 8.29688L18 12.2812L21.9375 8.29688C22.125 8.10938 22.3594 8.01562 22.6406 8.01562C22.9531 8.01562 23.2031 8.10938 23.3906 8.29688L27.7031 12.6094C27.8906 12.7969 27.9844 13.0469 27.9844 13.3594C27.9844 13.6406 27.8906 13.875 27.7031 14.0625L23.7188 18Z" fill="#FF0000"/>
</svg>
