<svg width="36" height="36" viewBox="0 0 36 36" fill="none" xmlns="http://www.w3.org/2000/svg">
<path d="M30 0H6C2.68629 0 0 2.68629 0 6V30C0 33.3137 2.68629 36 6 36H30C33.3137 36 36 33.3137 36 30V6C36 2.68629 33.3137 0 30 0Z" fill="#FFF4F4"/>
<path d="M17.7656 18.2344C16.8594 17.2969 16.4062 16.1562 16.4062 14.8125C16.4062 13.4688 16.8594 12.3281 17.7656 11.3906C18.7031 10.4531 19.8438 9.98438 21.1875 9.98438C22.5312 9.98438 23.6719 10.4531 24.6094 11.3906C25.5469 12.3281 26.0156 13.4688 26.0156 14.8125C26.0156 16.1562 25.5469 17.2969 24.6094 18.2344C23.6719 19.1406 22.5312 19.5938 21.1875 19.5938C19.8438 19.5938 18.7031 19.1406 17.7656 18.2344ZM19.3594 25.4531C18.9844 25.0469 18.7969 24.5625 18.7969 24C18.7969 23.4375 18.9844 22.9688 19.3594 22.5938C19.7656 22.1875 20.25 21.9844 20.8125 21.9844C21.375 21.9844 21.8438 22.1875 22.2188 22.5938C22.5938 22.9688 22.7812 23.4375 22.7812 24C22.7812 24.5625 22.5938 25.0469 22.2188 25.4531C21.8438 25.8281 21.375 26.0156 20.8125 26.0156C20.25 26.0156 19.7656 25.8281 19.3594 25.4531ZM10.9219 22.6406C10.2969 22.0156 9.98438 21.2656 9.98438 20.3906C9.98438 19.5156 10.2969 18.7656 10.9219 18.1406C11.5469 17.5156 12.3125 17.2031 13.2188 17.2031C14.0938 17.2031 14.8438 17.5156 15.4688 18.1406C16.0938 18.7344 16.4062 19.4844 16.4062 20.3906C16.4062 21.2969 16.0938 22.0625 15.4688 22.6875C14.8438 23.2812 14.0938 23.5781 13.2188 23.5781C12.3125 23.5781 11.5469 23.2656 10.9219 22.6406Z" fill="#FF0000"/>
</svg>
