<svg width="18" height="20" viewBox="0 0 18 20" fill="none" xmlns="http://www.w3.org/2000/svg">
<path d="M12.9844 4C12.9844 3.0625 13.4844 2.17188 14.4844 1.32812C15.5156 0.453125 16.6875 0.015625 18 0.015625V19.9844H15.5156V12.0156H12.9844V4ZM8.01562 7V0.015625H9.98438V7C9.98438 8.0625 9.625 8.98438 8.90625 9.76562C8.1875 10.5156 7.29688 10.9219 6.23438 10.9844V19.9844H3.75V10.9844C2.6875 10.9219 1.79688 10.5156 1.07812 9.76562C0.359375 8.98438 0 8.0625 0 7V0.015625H2.01562V7H3.98438V0.015625H6V7H8.01562Z" fill="#FF0000"/>
</svg>
