<svg width="36" height="36" viewBox="0 0 36 36" fill="none" xmlns="http://www.w3.org/2000/svg">
<path d="M30 0H6C2.68629 0 0 2.68629 0 6V30C0 33.3137 2.68629 36 6 36H30C33.3137 36 36 33.3137 36 30V6C36 2.68629 33.3137 0 30 0Z" fill="#FFF4F4"/>
<path d="M23.0156 17.0156V15H21V17.0156H23.0156ZM18.9844 17.0156V15H17.0156V17.0156H18.9844ZM15 17.0156V15H12.9844V17.0156H15ZM26.0156 8.01562C26.5469 8.01562 27 8.21875 27.375 8.625C27.7812 9 27.9844 9.45312 27.9844 9.98438V21.9844C27.9844 22.5156 27.7812 22.9844 27.375 23.3906C27 23.7969 26.5469 24 26.0156 24H12L8.01562 27.9844V9.98438C8.01562 9.45312 8.20312 9 8.57812 8.625C8.98439 8.21875 9.45312 8.01562 9.98438 8.01562H26.0156Z" fill="#FF0000"/>
</svg>
