<svg width="20" height="20" viewBox="0 0 20 20" fill="none" xmlns="http://www.w3.org/2000/svg">
<path d="M15.0156 9.01562V7H13V9.01562H15.0156ZM10.9844 9.01562V7H9.01562V9.01562H10.9844ZM7 9.01562V7H4.98438V9.01562H7ZM18.0156 0.015625C18.5469 0.015625 19 0.21875 19.375 0.625C19.7812 1 19.9844 1.45312 19.9844 1.98438V13.9844C19.9844 14.5156 19.7812 14.9844 19.375 15.3906C19 15.7969 18.5469 16 18.0156 16H4L0.015625 19.9844V1.98438C0.015625 1.45312 0.203125 1 0.578125 0.625C0.984375 0.21875 1.45312 0.015625 1.98438 0.015625H18.0156Z" fill="#FF0000"/>
</svg>
