<svg width="24" height="16" viewBox="0 0 24 16" fill="none" xmlns="http://www.w3.org/2000/svg">
<path d="M18.9844 1.98438C20.0781 1.98438 21.0156 2.39062 21.7969 3.20312C22.6094 3.98438 23.0156 4.92188 23.0156 6.01562V15.0156H21V12.0156H3V15.0156H0.984375V0.015625H3V9.01562H11.0156V1.98438H18.9844ZM9.09375 7.09375C8.5 7.6875 7.79688 7.98438 6.98438 7.98438C6.17188 7.98438 5.46875 7.6875 4.875 7.09375C4.28125 6.5 3.98438 5.79688 3.98438 4.98438C3.98438 4.17188 4.28125 3.46875 4.875 2.875C5.46875 2.28125 6.17188 1.98438 6.98438 1.98438C7.79688 1.98438 8.5 2.28125 9.09375 2.875C9.6875 3.46875 9.98438 4.17188 9.98438 4.98438C9.98438 5.79688 9.6875 6.5 9.09375 7.09375Z" fill="white"/>
</svg>
