<svg width="1366" height="262" viewBox="0 0 1366 262" fill="none" xmlns="http://www.w3.org/2000/svg">
<path fill-rule="evenodd" clip-rule="evenodd" d="M1366 35.9724L1309.08 77.9402C1252.17 119.908 1138.33 203.844 1024.5 239.816C910.667 275.788 796.833 263.797 683 233.82C569.167 203.844 455.333 155.88 341.5 155.88C227.667 155.88 113.833 203.844 56.9166 227.825L0 251.807V0H56.9166C113.833 0 227.667 0 341.5 0C455.333 0 569.167 0 683 0C796.833 0 910.667 0 1024.5 0C1138.33 0 1252.17 0 1309.08 0H1366V35.9724Z" fill="url(#paint0_linear)"/>
<defs>
<linearGradient id="paint0_linear" x1="683" y1="262" x2="683" y2="0" gradientUnits="userSpaceOnUse">
<stop stop-color="#FFF2F2"/>
<stop offset="1" stop-color="#FFF4F4" stop-opacity="0.28"/>
</linearGradient>
</defs>
</svg>
